<?xml version="1.0" encoding="utf-8"?><svg width="61" height="56" viewBox="0 0 61 56" xmlns="http://www.w3.org/2000/svg" xmlns:xlink="http://www.w3.org/1999/xlink"><svg width="11" height="7" viewBox="0 0 11 7" id="caret" x="44" y="40" xmlns="http://www.w3.org/2000/svg"><defs><path id="aa" d="M480.15 24.86l-3-3.02a.49.49 0 1 1 .7-.7l2.65 2.67 2.66-2.66a.49.49 0 1 1 .7.69l-3.02 3.02a.49.49 0 0 1-.69 0z"/></defs><use fill="#2b2b2b" xlink:href="#aa" transform="translate(-475 -19)"/></svg><svg width="11" height="7" viewBox="0 0 11 7" id="caret-white" x="22" y="13" xmlns="http://www.w3.org/2000/svg"><defs><path id="ba" d="M480.15 24.86l-3-3.02a.49.49 0 1 1 .7-.7l2.65 2.67 2.66-2.66a.49.49 0 1 1 .7.69l-3.02 3.02a.49.49 0 0 1-.69 0z"/></defs><use fill="#fff" xlink:href="#ba" transform="translate(-475 -19)"/></svg><svg width="16" height="16" viewBox="0 0 16 16" id="checkbox" x="16" y="40" xmlns="http://www.w3.org/2000/svg"><defs><path id="ca" d="M1290.62 671.14a.84.84 0 0 0-1.16.24l-6.52 9.42-2.52-2.88a.84.84 0 1 0-1.14 1.23l3.03 3.47.07.08.08.09.03.02.06.06.17.08.03.01.26.05h.01c.23 0 .46-.09.62-.27l.07-.1v-.01l7.15-10.33a.84.84 0 0 0-.24-1.16z"/></defs><use xlink:href="#ca" transform="translate(-1277 -669)"/></svg><svg width="19" height="17" viewBox="0 0 19 17" id="email" x="14" y="21" xmlns="http://www.w3.org/2000/svg"><defs><path id="da" d="M726 366h-12a2 2 0 0 1-2-2v-10c0-1.1.9-2 2-2h12a2 2 0 0 1 2 2v10a2 2 0 0 1-2 2zm-11-2h10a1 1 0 0 0 1-1v-7.62l-5.33 5.33a1 1 0 0 1-1.41 0L714 355.4v7.6a1 1 0 0 0 1 1zm9.55-10h-9.12l4.53 4.59z"/></defs><use fill="#d2d8d8" xlink:href="#da" transform="translate(-710 -350)"/></svg><svg preserveAspectRatio="xMidYMid" width="12" height="12" viewBox="0 0 12 12" id="find-icon" x="32" y="40" xmlns="http://www.w3.org/2000/svg"><defs><style>.ecls-1{fill:#93a3bc;fill-rule:evenodd}</style></defs><path d="M11.813 10.93L8.855 7.96a4.73 4.73 0 0 0 1.177-3.115C10.032 2.174 7.782 0 5.016 0 2.249 0-.001 2.174-.001 4.845S2.249 9.69 5.016 9.69a5.088 5.088 0 0 0 2.874-.877l2.979 2.993a.663.663 0 0 0 .472.194c.17 0 .331-.063.454-.177a.617.617 0 0 0 .018-.893zM5.016 1.264c2.044 0 3.708 1.606 3.708 3.581 0 1.975-1.664 3.581-3.708 3.581-2.045 0-3.709-1.606-3.709-3.581 0-1.975 1.664-3.581 3.709-3.581z" class="ecls-1"/></svg><svg width="13" height="13" viewBox="0 0 13 13" id="icon-search-magnifier" x="42" y="27" xmlns="http://www.w3.org/2000/svg"><path fill="#a8acad" d="M12.81 11.93L9.86 8.96a4.73 4.73 0 0 0 1.17-3.12A4.94 4.94 0 0 0 6.01 1 4.94 4.94 0 0 0 1 5.84a4.94 4.94 0 0 0 5 4.86c1.04 0 2.03-.3 2.88-.88l2.98 3c.12.12.3.19.47.19.17 0 .33-.06.45-.18a.62.62 0 0 0 .02-.9zm-6.8-9.67c2.05 0 3.71 1.61 3.71 3.58a3.65 3.65 0 0 1-3.7 3.59c-2.05 0-3.71-1.61-3.71-3.59A3.65 3.65 0 0 1 6 2.26z"/></svg><svg width="20" height="13" viewBox="0 0 20 13" id="mail" x="22" xmlns="http://www.w3.org/2000/svg"><path fill="#fff" d="M1.17 0C.86 0 .66.03.59.08.51.13.49.19.55.26.6.32.73.44.94.59l.23.2L10 7.61 18.83.83l.19-.2c.21-.15.35-.27.41-.33.07-.07.06-.14-.02-.2-.07-.07-.27-.1-.58-.1zM0 1.59l10 7.76 10-7.76v10.06c0 .29-.12.59-.35.89-.24.31-.47.46-.7.46H1.05c-.23 0-.46-.15-.7-.46-.23-.3-.35-.6-.35-.89z"/></svg><svg width="16" height="16" viewBox="0 0 16 16" id="minus" y="40" xmlns="http://www.w3.org/2000/svg"><title>Slice 6</title><path d="M8 16A8 8 0 1 0 8 0a8 8 0 0 0 0 16zM4 7h8v2H4V7z" fill="#E00" fill-rule="evenodd"/></svg><svg width="19" height="11" viewBox="0 0 19 11" id="password" x="42" xmlns="http://www.w3.org/2000/svg"><defs><path id="ia" d="M724 436a4 4 0 0 1-3.86-3H716v2a1 1 0 0 1-2 0v-2h-1a1 1 0 0 1 0-2h7.14a4 4 0 1 1 3.86 5zm0-6a2 2 0 1 0 0 4 2 2 0 0 0 0-4z"/></defs><use fill="#d2d8d8" xlink:href="#ia" transform="translate(-711 -426)"/></svg><svg width="16" height="16" viewBox="0 0 16 16" id="plus" x="42" y="11" xmlns="http://www.w3.org/2000/svg"><title>Slice 5</title><path d="M7 7H4v2h3v3h2V9h3V7H9V4H7v3zm1 9A8 8 0 1 0 8 0a8 8 0 0 0 0 16z" fill="#66B500" fill-rule="evenodd"/></svg><svg viewBox="0 0 3 3" width="3" height="3" id="point" x="58" y="11" xmlns="http://www.w3.org/2000/svg"><path fill="#fff" d="M0 0h3v3H0z"/></svg><svg viewBox="0 0 3 3" width="3" height="3" id="point_black" x="58" y="14" xmlns="http://www.w3.org/2000/svg"><path fill="#999" d="M0 0h3v3H0z"/></svg><svg width="22" height="21" viewBox="0 0 22 21" id="star" xmlns="http://www.w3.org/2000/svg"><defs><path id="ma" d="M470.5 65.77l5.86 4.23-2.22-6.89 5.86-4.07h-7.13L470.5 52l-2.38 7.04H461l5.86 4.07-2.22 6.89z"/></defs><use fill="#cb262c" xlink:href="#ma" transform="translate(-459 -50)"/></svg><svg width="14" height="19" viewBox="0 0 14 19" id="username" y="21" xmlns="http://www.w3.org/2000/svg"><defs><path id="na" d="M726 1115a4 4 0 0 1-4 4h-4a4 4 0 0 1-2.4-7.19 6.88 6.88 0 0 1-.6-2.81c0-3.31 2.24-6 5-6s5 2.69 5 6c0 1.02-.23 1.97-.6 2.81.96.73 1.6 1.88 1.6 3.19zm-6-10c-1.66 0-3 1.8-3 4s1.34 4 3 4 3-1.8 3-4-1.34-4-3-4zm3.3 8.48a4.53 4.53 0 0 1-3.3 1.52 4.53 4.53 0 0 1-3.3-1.52 1.99 1.99 0 0 0 1.3 3.52h4a2 2 0 0 0 1.3-3.52z"/></defs><use fill="#d2d8d8" xlink:href="#na" transform="translate(-713 -1101)"/></svg></svg>